<svg width="400" height="400" viewBox="0 0 400 400" fill="none" xmlns="http://www.w3.org/2000/svg">
<path d="M33.87 271.71C28.3 258.65 48.25 235.06 85.47 211.85" stroke="#6A0BFF" stroke-width="12" stroke-miterlimit="10" stroke-linecap="round" stroke-linejoin="round"/>
<path d="M286.43 126.12C329.32 116.95 359.78 117.24 365.35 130.29" stroke="#6A0BFF" stroke-width="12" stroke-miterlimit="10" stroke-linecap="round" stroke-linejoin="round"/>
<path d="M199.61 315.65C262.929 315.65 314.26 264.32 314.26 201C314.26 137.681 262.929 86.3501 199.61 86.3501C136.291 86.3501 84.96 137.681 84.96 201C84.96 264.32 136.291 315.65 199.61 315.65Z" stroke="#191919" stroke-width="12" stroke-miterlimit="10" stroke-linecap="round" stroke-linejoin="round"/>
<path d="M159.61 198.85C175.77 198.85 188.87 185.75 188.87 169.59C188.87 153.43 175.77 140.33 159.61 140.33C143.45 140.33 130.35 153.43 130.35 169.59C130.35 185.75 143.45 198.85 159.61 198.85Z" stroke="#191919" stroke-width="12" stroke-miterlimit="10" stroke-linecap="round" stroke-linejoin="round"/>
<path d="M251.4 169.59C259.48 169.59 266.03 163.04 266.03 154.96C266.03 146.88 259.48 140.33 251.4 140.33C243.32 140.33 236.77 146.88 236.77 154.96C236.77 163.04 243.32 169.59 251.4 169.59Z" stroke="#191919" stroke-width="12" stroke-miterlimit="10" stroke-linecap="round" stroke-linejoin="round"/>
<path d="M214.4 292.78C220.144 292.78 224.8 288.124 224.8 282.38C224.8 276.636 220.144 271.98 214.4 271.98C208.656 271.98 204 276.636 204 282.38C204 288.124 208.656 292.78 214.4 292.78Z" stroke="#191919" stroke-width="12" stroke-miterlimit="10" stroke-linecap="round" stroke-linejoin="round"/>
<path d="M33.87 271.71C43.35 293.94 125.24 280.3 216.78 241.25C229.33 235.9 241.41 230.34 252.88 224.69" stroke="#6A0BFF" stroke-width="12" stroke-miterlimit="10" stroke-linecap="round" stroke-linejoin="round"/>
<path d="M287.44 206.33C339.93 176.24 372.15 146.22 365.35 130.29" stroke="#6A0BFF" stroke-width="12" stroke-miterlimit="10" stroke-linecap="round" stroke-linejoin="round"/>
<path d="M270.26 235.28C281.068 235.28 289.83 226.518 289.83 215.71C289.83 204.902 281.068 196.14 270.26 196.14C259.452 196.14 250.69 204.902 250.69 215.71C250.69 226.518 259.452 235.28 270.26 235.28Z" stroke="#6A0BFF" stroke-width="12" stroke-miterlimit="10" stroke-linecap="round" stroke-linejoin="round"/>
</svg>
